<?xml version="1.0" encoding="utf-8" standalone="no"?>
<!DOCTYPE svg PUBLIC "-//W3C//DTD SVG 1.1//EN"
  "http://www.w3.org/Graphics/SVG/1.1/DTD/svg11.dtd">
<!-- Created with matplotlib (http://matplotlib.org/) -->
<svg height="277.692512pt" version="1.1" viewBox="0 0 277.895625 277.692512" width="277.895625pt" xmlns="http://www.w3.org/2000/svg" xmlns:xlink="http://www.w3.org/1999/xlink">
 <defs>
  <style type="text/css">
*{stroke-linecap:butt;stroke-linejoin:round;}
  </style>
 </defs>
 <g id="figure_1">
  <g id="patch_1">
   <path d="M 0 277.692512 
L 277.895625 277.692512 
L 277.895625 0 
L 0 0 
z
" style="fill:#ffffff;"/>
  </g>
  <g id="axes_1">
   <g id="patch_2">
    <path d="M 43.995625 237.425325 
L 267.195625 237.425325 
L 267.195625 22.318125 
L 43.995625 22.318125 
z
" style="fill:#ffffff;"/>
   </g>
   <g id="matplotlib.axis_1">
    <g id="xtick_1">
     <g id="line2d_1">
      <defs>
       <path d="M 0 0 
L 0 3.5 
" id="m49bd86c7df" style="stroke:#000000;stroke-width:0.8;"/>
      </defs>
      <g>
       <use style="stroke:#000000;stroke-width:0.8;" x="54.14108" xlink:href="#m49bd86c7df" y="237.425325"/>
      </g>
     </g>
     <g id="text_1">
      <!-- 0.0 -->
      <defs>
       <path d="M 51.515625 35.890625 
Q 51.515625 17.09375 45.78125 8.046875 
Q 40.046875 -0.984375 28.421875 -0.984375 
Q 17.234375 -0.984375 11.421875 8.3125 
Q 5.609375 17.625 5.609375 35.890625 
Q 5.609375 54.546875 11.25 63.53125 
Q 16.890625 72.515625 28.421875 72.515625 
Q 39.703125 72.515625 45.609375 63.203125 
Q 51.515625 53.90625 51.515625 35.890625 
z
M 10.890625 35.890625 
Q 10.890625 19.28125 15.234375 11.34375 
Q 19.578125 3.421875 28.421875 3.421875 
Q 37.640625 3.421875 41.859375 11.625 
Q 46.09375 19.828125 46.09375 35.890625 
Q 46.09375 51.703125 41.859375 59.90625 
Q 37.640625 68.109375 28.421875 68.109375 
Q 19.1875 68.109375 15.03125 59.90625 
Q 10.890625 51.703125 10.890625 35.890625 
z
" id="OpenSans-Light-30"/>
       <path d="M 7.90625 3.8125 
Q 7.90625 8.59375 11.8125 8.59375 
Q 15.828125 8.59375 15.828125 3.8125 
Q 15.828125 -0.984375 11.8125 -0.984375 
Q 7.90625 -0.984375 7.90625 3.8125 
z
" id="OpenSans-Light-2e"/>
      </defs>
      <g transform="translate(47.244205 252.023762)scale(0.1 -0.1)">
       <use xlink:href="#OpenSans-Light-30"/>
       <use x="57.080078" xlink:href="#OpenSans-Light-2e"/>
       <use x="80.859375" xlink:href="#OpenSans-Light-30"/>
      </g>
     </g>
    </g>
    <g id="xtick_2">
     <g id="line2d_2">
      <g>
       <use style="stroke:#000000;stroke-width:0.8;" x="94.722898" xlink:href="#m49bd86c7df" y="237.425325"/>
      </g>
     </g>
     <g id="text_2">
      <!-- 0.2 -->
      <defs>
       <path d="M 50.203125 0 
L 5.515625 0 
L 5.515625 4.296875 
L 24.515625 24.125 
Q 32.515625 32.421875 35.734375 36.8125 
Q 38.96875 41.21875 40.484375 45.21875 
Q 42 49.21875 42 53.609375 
Q 42 60.015625 37.796875 64.015625 
Q 33.59375 68.015625 26.90625 68.015625 
Q 17.96875 68.015625 9.8125 61.53125 
L 7.171875 64.890625 
Q 16.109375 72.40625 27 72.40625 
Q 36.328125 72.40625 41.671875 67.421875 
Q 47.015625 62.453125 47.015625 53.71875 
Q 47.015625 46.625 43.421875 40.015625 
Q 39.84375 33.40625 30.328125 23.6875 
L 12.015625 4.890625 
L 12.015625 4.6875 
L 50.203125 4.6875 
z
" id="OpenSans-Light-32"/>
      </defs>
      <g transform="translate(87.826023 252.023762)scale(0.1 -0.1)">
       <use xlink:href="#OpenSans-Light-30"/>
       <use x="57.080078" xlink:href="#OpenSans-Light-2e"/>
       <use x="80.859375" xlink:href="#OpenSans-Light-32"/>
      </g>
     </g>
    </g>
    <g id="xtick_3">
     <g id="line2d_3">
      <g>
       <use style="stroke:#000000;stroke-width:0.8;" x="135.304716" xlink:href="#m49bd86c7df" y="237.425325"/>
      </g>
     </g>
     <g id="text_3">
      <!-- 0.4 -->
      <defs>
       <path d="M 55.71875 18.21875 
L 43.40625 18.21875 
L 43.40625 0 
L 38.8125 0 
L 38.8125 18.21875 
L 2.09375 18.21875 
L 2.09375 21.484375 
L 37.5 71.78125 
L 43.40625 71.78125 
L 43.40625 22.40625 
L 55.71875 22.40625 
z
M 38.8125 22.40625 
L 38.8125 42.828125 
Q 38.8125 57.5625 39.5 67.578125 
L 39.109375 67.578125 
Q 38.140625 65.765625 33.109375 58.40625 
L 7.90625 22.40625 
z
" id="OpenSans-Light-34"/>
      </defs>
      <g transform="translate(128.407841 252.023762)scale(0.1 -0.1)">
       <use xlink:href="#OpenSans-Light-30"/>
       <use x="57.080078" xlink:href="#OpenSans-Light-2e"/>
       <use x="80.859375" xlink:href="#OpenSans-Light-34"/>
      </g>
     </g>
    </g>
    <g id="xtick_4">
     <g id="line2d_4">
      <g>
       <use style="stroke:#000000;stroke-width:0.8;" x="175.886534" xlink:href="#m49bd86c7df" y="237.425325"/>
      </g>
     </g>
     <g id="text_4">
      <!-- 0.6 -->
      <defs>
       <path d="M 6.390625 30.421875 
Q 6.390625 44.34375 10.171875 53.828125 
Q 13.96875 63.328125 20.921875 67.921875 
Q 27.875 72.515625 37.703125 72.515625 
Q 42.28125 72.515625 46.09375 71.390625 
L 46.09375 67.09375 
Q 42.53125 68.40625 37.5 68.40625 
Q 25.4375 68.40625 18.71875 59.71875 
Q 12.015625 51.03125 11.1875 34.421875 
L 11.8125 34.421875 
Q 15.53125 39.203125 20.3125 41.640625 
Q 25.09375 44.09375 30.421875 44.09375 
Q 40.4375 44.09375 46.0625 38.375 
Q 51.703125 32.671875 51.703125 22.609375 
Q 51.703125 11.671875 45.765625 5.34375 
Q 39.84375 -0.984375 29.78125 -0.984375 
Q 18.953125 -0.984375 12.671875 7.296875 
Q 6.390625 15.578125 6.390625 30.421875 
z
M 29.78125 3.328125 
Q 37.796875 3.328125 42.234375 8.34375 
Q 46.6875 13.375 46.6875 22.703125 
Q 46.6875 30.90625 42.28125 35.5 
Q 37.890625 40.09375 30.328125 40.09375 
Q 25.34375 40.09375 21.0625 37.890625 
Q 16.796875 35.6875 14.25 32.046875 
Q 11.71875 28.421875 11.71875 24.609375 
Q 11.71875 19.1875 14.125 14.1875 
Q 16.546875 9.1875 20.671875 6.25 
Q 24.8125 3.328125 29.78125 3.328125 
z
" id="OpenSans-Light-36"/>
      </defs>
      <g transform="translate(168.989659 252.023762)scale(0.1 -0.1)">
       <use xlink:href="#OpenSans-Light-30"/>
       <use x="57.080078" xlink:href="#OpenSans-Light-2e"/>
       <use x="80.859375" xlink:href="#OpenSans-Light-36"/>
      </g>
     </g>
    </g>
    <g id="xtick_5">
     <g id="line2d_5">
      <g>
       <use style="stroke:#000000;stroke-width:0.8;" x="216.468352" xlink:href="#m49bd86c7df" y="237.425325"/>
      </g>
     </g>
     <g id="text_5">
      <!-- 0.8 -->
      <defs>
       <path d="M 28.421875 72.609375 
Q 37.5 72.609375 43.03125 67.96875 
Q 48.578125 63.328125 48.578125 55.421875 
Q 48.578125 49.953125 45.140625 45.75 
Q 41.703125 41.546875 33.984375 37.984375 
Q 43.359375 34.125 47.171875 29.53125 
Q 50.984375 24.953125 50.984375 18.40625 
Q 50.984375 9.578125 44.796875 4.296875 
Q 38.625 -0.984375 28.21875 -0.984375 
Q 17.4375 -0.984375 11.671875 3.953125 
Q 5.90625 8.890625 5.90625 18.3125 
Q 5.90625 24.703125 9.953125 29.53125 
Q 14.015625 34.375 22.515625 37.796875 
Q 14.65625 41.5 11.421875 45.625 
Q 8.203125 49.75 8.203125 55.515625 
Q 8.203125 60.640625 10.78125 64.515625 
Q 13.375 68.40625 18.03125 70.5 
Q 22.703125 72.609375 28.421875 72.609375 
z
M 10.890625 17.578125 
Q 10.890625 10.84375 15.453125 7.125 
Q 20.015625 3.421875 28.21875 3.421875 
Q 36.234375 3.421875 41.109375 7.34375 
Q 46 11.28125 46 18.015625 
Q 46 24.078125 42.15625 27.859375 
Q 38.328125 31.640625 27.390625 35.796875 
Q 18.40625 32.328125 14.640625 28.125 
Q 10.890625 23.921875 10.890625 17.578125 
z
M 28.328125 68.21875 
Q 21.4375 68.21875 17.265625 64.8125 
Q 13.09375 61.421875 13.09375 55.515625 
Q 13.09375 52.09375 14.625 49.484375 
Q 16.15625 46.875 19.0625 44.75 
Q 21.96875 42.625 28.8125 39.796875 
Q 36.765625 42.875 40.234375 46.578125 
Q 43.703125 50.296875 43.703125 55.515625 
Q 43.703125 61.375 39.578125 64.796875 
Q 35.453125 68.21875 28.328125 68.21875 
z
" id="OpenSans-Light-38"/>
      </defs>
      <g transform="translate(209.571477 252.023762)scale(0.1 -0.1)">
       <use xlink:href="#OpenSans-Light-30"/>
       <use x="57.080078" xlink:href="#OpenSans-Light-2e"/>
       <use x="80.859375" xlink:href="#OpenSans-Light-38"/>
      </g>
     </g>
    </g>
    <g id="xtick_6">
     <g id="line2d_6">
      <g>
       <use style="stroke:#000000;stroke-width:0.8;" x="257.05017" xlink:href="#m49bd86c7df" y="237.425325"/>
      </g>
     </g>
     <g id="text_6">
      <!-- 1.0 -->
      <defs>
       <path d="M 33.296875 0 
L 28.515625 0 
L 28.515625 52 
Q 28.515625 59.078125 29.109375 66.703125 
Q 28.375 65.96875 27.59375 65.28125 
Q 26.8125 64.59375 12.5 53.421875 
L 9.71875 56.890625 
L 29.109375 71.390625 
L 33.296875 71.390625 
z
" id="OpenSans-Light-31"/>
      </defs>
      <g transform="translate(250.153295 252.023762)scale(0.1 -0.1)">
       <use xlink:href="#OpenSans-Light-31"/>
       <use x="57.080078" xlink:href="#OpenSans-Light-2e"/>
       <use x="80.859375" xlink:href="#OpenSans-Light-30"/>
      </g>
     </g>
    </g>
    <g id="text_7">
     <!-- false positive rate -->
     <defs>
      <path d="M 28.609375 48.875 
L 16.109375 48.875 
L 16.109375 0 
L 11.28125 0 
L 11.28125 48.875 
L 1.421875 48.875 
L 1.421875 51.703125 
L 11.28125 53.515625 
L 11.28125 57.625 
Q 11.28125 67.390625 14.859375 71.953125 
Q 18.453125 76.515625 26.609375 76.515625 
Q 31 76.515625 35.40625 75.203125 
L 34.28125 71 
Q 30.375 72.21875 26.515625 72.21875 
Q 20.84375 72.21875 18.46875 68.875 
Q 16.109375 65.53125 16.109375 58.015625 
L 16.109375 53.078125 
L 28.609375 53.078125 
z
" id="OpenSans-Light-66"/>
      <path d="M 41.109375 0 
L 39.890625 8.40625 
L 39.5 8.40625 
Q 35.5 3.265625 31.265625 1.140625 
Q 27.046875 -0.984375 21.296875 -0.984375 
Q 13.484375 -0.984375 9.125 3.015625 
Q 4.78125 7.03125 4.78125 14.109375 
Q 4.78125 21.875 11.25 26.171875 
Q 17.71875 30.46875 29.984375 30.71875 
L 40.09375 31 
L 40.09375 34.515625 
Q 40.09375 42.09375 37.015625 45.953125 
Q 33.9375 49.8125 27.09375 49.8125 
Q 19.734375 49.8125 11.8125 45.703125 
L 10.015625 49.90625 
Q 18.75 54 27.296875 54 
Q 36.03125 54 40.34375 49.453125 
Q 44.671875 44.921875 44.671875 35.296875 
L 44.671875 0 
z
M 21.578125 3.421875 
Q 30.078125 3.421875 34.984375 8.28125 
Q 39.890625 13.140625 39.890625 21.78125 
L 39.890625 27 
L 30.609375 26.609375 
Q 19.4375 26.078125 14.671875 23.125 
Q 9.90625 20.171875 9.90625 13.921875 
Q 9.90625 8.9375 12.953125 6.171875 
Q 16.015625 3.421875 21.578125 3.421875 
z
" id="OpenSans-Light-61"/>
      <path d="M 13.71875 0 
L 8.890625 0 
L 8.890625 75.984375 
L 13.71875 75.984375 
z
" id="OpenSans-Light-6c"/>
      <path d="M 41.796875 13.8125 
Q 41.796875 6.6875 36.375 2.84375 
Q 30.953125 -0.984375 21 -0.984375 
Q 10.359375 -0.984375 4.109375 2.296875 
L 4.109375 7.515625 
Q 12.109375 3.515625 21 3.515625 
Q 28.859375 3.515625 32.9375 6.125 
Q 37.015625 8.734375 37.015625 13.09375 
Q 37.015625 17.09375 33.765625 19.828125 
Q 30.515625 22.5625 23.09375 25.203125 
Q 15.140625 28.078125 11.90625 30.15625 
Q 8.6875 32.234375 7.046875 34.84375 
Q 5.421875 37.453125 5.421875 41.21875 
Q 5.421875 47.171875 10.421875 50.640625 
Q 15.4375 54.109375 24.421875 54.109375 
Q 33.015625 54.109375 40.71875 50.875 
L 38.921875 46.484375 
Q 31.109375 49.703125 24.421875 49.703125 
Q 17.921875 49.703125 14.109375 47.546875 
Q 10.296875 45.40625 10.296875 41.609375 
Q 10.296875 37.453125 13.25 34.953125 
Q 16.21875 32.46875 24.8125 29.390625 
Q 31.984375 26.8125 35.25 24.734375 
Q 38.53125 22.65625 40.15625 20.015625 
Q 41.796875 17.390625 41.796875 13.8125 
z
" id="OpenSans-Light-73"/>
      <path d="M 30.328125 -0.984375 
Q 18.75 -0.984375 12.28125 6.140625 
Q 5.8125 13.28125 5.8125 26.125 
Q 5.8125 38.8125 12.0625 46.453125 
Q 18.3125 54.109375 28.90625 54.109375 
Q 38.28125 54.109375 43.703125 47.5625 
Q 49.125 41.015625 49.125 29.78125 
L 49.125 25.875 
L 10.890625 25.875 
Q 10.984375 14.9375 15.984375 9.171875 
Q 21 3.421875 30.328125 3.421875 
Q 34.859375 3.421875 38.296875 4.046875 
Q 41.75 4.6875 47.015625 6.78125 
L 47.015625 2.390625 
Q 42.53125 0.4375 38.71875 -0.265625 
Q 34.90625 -0.984375 30.328125 -0.984375 
z
M 28.90625 49.8125 
Q 21.234375 49.8125 16.59375 44.75 
Q 11.96875 39.703125 11.1875 30.171875 
L 44 30.171875 
Q 44 39.40625 39.984375 44.609375 
Q 35.984375 49.8125 28.90625 49.8125 
z
" id="OpenSans-Light-65"/>
      <path id="OpenSans-Light-20"/>
      <path d="M 31.59375 -0.984375 
Q 19.34375 -0.984375 13.71875 8.203125 
L 13.375 8.203125 
L 13.53125 4.109375 
Q 13.71875 0.484375 13.71875 -3.8125 
L 13.71875 -24.03125 
L 8.890625 -24.03125 
L 8.890625 53.078125 
L 12.984375 53.078125 
L 13.921875 45.515625 
L 14.203125 45.515625 
Q 19.671875 54.109375 31.6875 54.109375 
Q 42.4375 54.109375 48.078125 47.046875 
Q 53.71875 39.984375 53.71875 26.515625 
Q 53.71875 13.421875 47.78125 6.21875 
Q 41.84375 -0.984375 31.59375 -0.984375 
z
M 31.5 3.328125 
Q 39.65625 3.328125 44.109375 9.375 
Q 48.578125 15.4375 48.578125 26.3125 
Q 48.578125 49.703125 31.6875 49.703125 
Q 22.40625 49.703125 18.0625 44.59375 
Q 13.71875 39.5 13.71875 27.984375 
L 13.71875 26.421875 
Q 13.71875 13.96875 17.890625 8.640625 
Q 22.078125 3.328125 31.5 3.328125 
z
" id="OpenSans-Light-70"/>
      <path d="M 52.78125 26.609375 
Q 52.78125 13.625 46.484375 6.3125 
Q 40.1875 -0.984375 29.109375 -0.984375 
Q 22.125 -0.984375 16.796875 2.390625 
Q 11.46875 5.765625 8.640625 12.0625 
Q 5.8125 18.359375 5.8125 26.609375 
Q 5.8125 39.59375 12.109375 46.84375 
Q 18.40625 54.109375 29.390625 54.109375 
Q 40.328125 54.109375 46.546875 46.75 
Q 52.78125 39.40625 52.78125 26.609375 
z
M 10.890625 26.609375 
Q 10.890625 15.671875 15.703125 9.546875 
Q 20.515625 3.421875 29.296875 3.421875 
Q 38.09375 3.421875 42.890625 9.546875 
Q 47.703125 15.671875 47.703125 26.609375 
Q 47.703125 37.59375 42.84375 43.640625 
Q 37.984375 49.703125 29.203125 49.703125 
Q 20.40625 49.703125 15.640625 43.671875 
Q 10.890625 37.640625 10.890625 26.609375 
z
" id="OpenSans-Light-6f"/>
      <path d="M 13.71875 0 
L 8.890625 0 
L 8.890625 53.078125 
L 13.71875 53.078125 
z
M 8.203125 67.828125 
Q 8.203125 72.515625 11.28125 72.515625 
Q 12.796875 72.515625 13.640625 71.28125 
Q 14.5 70.0625 14.5 67.828125 
Q 14.5 65.625 13.640625 64.359375 
Q 12.796875 63.09375 11.28125 63.09375 
Q 8.203125 63.09375 8.203125 67.828125 
z
" id="OpenSans-Light-69"/>
      <path d="M 22.90625 3.328125 
Q 27.484375 3.328125 30.90625 4.109375 
L 30.90625 0.203125 
Q 27.390625 -0.984375 22.796875 -0.984375 
Q 15.765625 -0.984375 12.421875 2.78125 
Q 9.078125 6.546875 9.078125 14.59375 
L 9.078125 48.875 
L 1.21875 48.875 
L 1.21875 51.703125 
L 9.078125 53.90625 
L 11.53125 65.921875 
L 14.015625 65.921875 
L 14.015625 53.078125 
L 29.59375 53.078125 
L 29.59375 48.875 
L 14.015625 48.875 
L 14.015625 15.28125 
Q 14.015625 9.1875 16.15625 6.25 
Q 18.3125 3.328125 22.90625 3.328125 
z
" id="OpenSans-Light-74"/>
      <path d="M 20.515625 0 
L 0 53.078125 
L 4.984375 53.078125 
L 18.703125 17 
Q 21.4375 10.0625 22.796875 4.890625 
L 23.09375 4.890625 
Q 25.09375 11.53125 27.203125 17.09375 
L 40.921875 53.078125 
L 45.90625 53.078125 
L 25.390625 0 
z
" id="OpenSans-Light-76"/>
      <path d="M 29.78125 54.109375 
Q 33.15625 54.109375 37.015625 53.421875 
L 36.078125 48.78125 
Q 32.765625 49.609375 29.203125 49.609375 
Q 22.40625 49.609375 18.0625 43.84375 
Q 13.71875 38.09375 13.71875 29.296875 
L 13.71875 0 
L 8.890625 0 
L 8.890625 53.078125 
L 12.984375 53.078125 
L 13.484375 43.5 
L 13.8125 43.5 
Q 17.09375 49.359375 20.796875 51.734375 
Q 24.515625 54.109375 29.78125 54.109375 
z
" id="OpenSans-Light-72"/>
     </defs>
     <g transform="translate(108.586562 267.608762)scale(0.12 -0.12)">
      <use xlink:href="#OpenSans-Light-66"/>
      <use x="29.980469" xlink:href="#OpenSans-Light-61"/>
      <use x="82.958984" xlink:href="#OpenSans-Light-6c"/>
      <use x="105.566406" xlink:href="#OpenSans-Light-73"/>
      <use x="152.148438" xlink:href="#OpenSans-Light-65"/>
      <use x="207.03125" xlink:href="#OpenSans-Light-20"/>
      <use x="233.007812" xlink:href="#OpenSans-Light-70"/>
      <use x="292.529297" xlink:href="#OpenSans-Light-6f"/>
      <use x="351.123047" xlink:href="#OpenSans-Light-73"/>
      <use x="397.705078" xlink:href="#OpenSans-Light-69"/>
      <use x="420.3125" xlink:href="#OpenSans-Light-74"/>
      <use x="453.808594" xlink:href="#OpenSans-Light-69"/>
      <use x="476.416016" xlink:href="#OpenSans-Light-76"/>
      <use x="522.314453" xlink:href="#OpenSans-Light-65"/>
      <use x="577.197266" xlink:href="#OpenSans-Light-20"/>
      <use x="603.173828" xlink:href="#OpenSans-Light-72"/>
      <use x="642.058594" xlink:href="#OpenSans-Light-61"/>
      <use x="695.037109" xlink:href="#OpenSans-Light-74"/>
      <use x="728.533203" xlink:href="#OpenSans-Light-65"/>
     </g>
    </g>
   </g>
   <g id="matplotlib.axis_2">
    <g id="ytick_1">
     <g id="line2d_7">
      <defs>
       <path d="M 0 0 
L -3.5 0 
" id="m587a6e9916" style="stroke:#000000;stroke-width:0.8;"/>
      </defs>
      <g>
       <use style="stroke:#000000;stroke-width:0.8;" x="43.995625" xlink:href="#m587a6e9916" y="227.647725"/>
      </g>
     </g>
     <g id="text_8">
      <!-- 0.0 -->
      <g transform="translate(23.201875 231.446944)scale(0.1 -0.1)">
       <use xlink:href="#OpenSans-Light-30"/>
       <use x="57.080078" xlink:href="#OpenSans-Light-2e"/>
       <use x="80.859375" xlink:href="#OpenSans-Light-30"/>
      </g>
     </g>
    </g>
    <g id="ytick_2">
     <g id="line2d_8">
      <g>
       <use style="stroke:#000000;stroke-width:0.8;" x="43.995625" xlink:href="#m587a6e9916" y="188.537325"/>
      </g>
     </g>
     <g id="text_9">
      <!-- 0.2 -->
      <g transform="translate(23.201875 192.336544)scale(0.1 -0.1)">
       <use xlink:href="#OpenSans-Light-30"/>
       <use x="57.080078" xlink:href="#OpenSans-Light-2e"/>
       <use x="80.859375" xlink:href="#OpenSans-Light-32"/>
      </g>
     </g>
    </g>
    <g id="ytick_3">
     <g id="line2d_9">
      <g>
       <use style="stroke:#000000;stroke-width:0.8;" x="43.995625" xlink:href="#m587a6e9916" y="149.426925"/>
      </g>
     </g>
     <g id="text_10">
      <!-- 0.4 -->
      <g transform="translate(23.201875 153.226144)scale(0.1 -0.1)">
       <use xlink:href="#OpenSans-Light-30"/>
       <use x="57.080078" xlink:href="#OpenSans-Light-2e"/>
       <use x="80.859375" xlink:href="#OpenSans-Light-34"/>
      </g>
     </g>
    </g>
    <g id="ytick_4">
     <g id="line2d_10">
      <g>
       <use style="stroke:#000000;stroke-width:0.8;" x="43.995625" xlink:href="#m587a6e9916" y="110.316525"/>
      </g>
     </g>
     <g id="text_11">
      <!-- 0.6 -->
      <g transform="translate(23.201875 114.115744)scale(0.1 -0.1)">
       <use xlink:href="#OpenSans-Light-30"/>
       <use x="57.080078" xlink:href="#OpenSans-Light-2e"/>
       <use x="80.859375" xlink:href="#OpenSans-Light-36"/>
      </g>
     </g>
    </g>
    <g id="ytick_5">
     <g id="line2d_11">
      <g>
       <use style="stroke:#000000;stroke-width:0.8;" x="43.995625" xlink:href="#m587a6e9916" y="71.206125"/>
      </g>
     </g>
     <g id="text_12">
      <!-- 0.8 -->
      <g transform="translate(23.201875 75.005344)scale(0.1 -0.1)">
       <use xlink:href="#OpenSans-Light-30"/>
       <use x="57.080078" xlink:href="#OpenSans-Light-2e"/>
       <use x="80.859375" xlink:href="#OpenSans-Light-38"/>
      </g>
     </g>
    </g>
    <g id="ytick_6">
     <g id="line2d_12">
      <g>
       <use style="stroke:#000000;stroke-width:0.8;" x="43.995625" xlink:href="#m587a6e9916" y="32.095725"/>
      </g>
     </g>
     <g id="text_13">
      <!-- 1.0 -->
      <g transform="translate(23.201875 35.894944)scale(0.1 -0.1)">
       <use xlink:href="#OpenSans-Light-31"/>
       <use x="57.080078" xlink:href="#OpenSans-Light-2e"/>
       <use x="80.859375" xlink:href="#OpenSans-Light-30"/>
      </g>
     </g>
    </g>
    <g id="text_14">
     <!-- true positive rate -->
     <defs>
      <path d="M 13.09375 53.078125 
L 13.09375 18.703125 
Q 13.09375 10.6875 16.453125 7.046875 
Q 19.828125 3.421875 26.90625 3.421875 
Q 36.375 3.421875 40.84375 8.203125 
Q 45.3125 12.984375 45.3125 23.78125 
L 45.3125 53.078125 
L 50.09375 53.078125 
L 50.09375 0 
L 46 0 
L 45.125 7.328125 
L 44.828125 7.328125 
Q 39.65625 -0.984375 26.421875 -0.984375 
Q 8.296875 -0.984375 8.296875 18.40625 
L 8.296875 53.078125 
z
" id="OpenSans-Light-75"/>
     </defs>
     <g transform="translate(16.318125 175.635787)rotate(-90)scale(0.12 -0.12)">
      <use xlink:href="#OpenSans-Light-74"/>
      <use x="33.496094" xlink:href="#OpenSans-Light-72"/>
      <use x="72.412109" xlink:href="#OpenSans-Light-75"/>
      <use x="131.396484" xlink:href="#OpenSans-Light-65"/>
      <use x="186.279297" xlink:href="#OpenSans-Light-20"/>
      <use x="212.255859" xlink:href="#OpenSans-Light-70"/>
      <use x="271.777344" xlink:href="#OpenSans-Light-6f"/>
      <use x="330.371094" xlink:href="#OpenSans-Light-73"/>
      <use x="376.953125" xlink:href="#OpenSans-Light-69"/>
      <use x="399.560547" xlink:href="#OpenSans-Light-74"/>
      <use x="433.056641" xlink:href="#OpenSans-Light-69"/>
      <use x="455.664062" xlink:href="#OpenSans-Light-76"/>
      <use x="501.5625" xlink:href="#OpenSans-Light-65"/>
      <use x="556.445312" xlink:href="#OpenSans-Light-20"/>
      <use x="582.421875" xlink:href="#OpenSans-Light-72"/>
      <use x="621.306641" xlink:href="#OpenSans-Light-61"/>
      <use x="674.285156" xlink:href="#OpenSans-Light-74"/>
      <use x="707.78125" xlink:href="#OpenSans-Light-65"/>
     </g>
    </g>
   </g>
   <g id="line2d_13">
    <path clip-path="url(#pc356802b94)" d="M 54.14108 227.647725 
L 56.677443 222.758925 
L 56.677443 220.314525 
L 56.677443 217.870125 
L 56.677443 215.425725 
L 56.677443 212.981325 
L 56.677443 208.092525 
L 56.677443 205.648125 
L 56.677443 200.759325 
L 56.677443 198.314925 
L 56.677443 195.870525 
L 56.677443 190.981725 
L 56.677443 188.537325 
L 56.677443 186.092925 
L 56.677443 181.204125 
L 56.677443 178.759725 
L 56.677443 173.870925 
L 56.677443 168.982125 
L 56.677443 166.537725 
L 56.677443 164.093325 
L 56.677443 161.648925 
L 56.677443 156.760125 
L 56.677443 151.871325 
L 56.677443 149.426925 
L 56.677443 144.538125 
L 56.677443 139.649325 
L 61.75017 139.649325 
L 66.822898 139.649325 
L 66.822898 137.204925 
L 69.359261 137.204925 
L 71.895625 137.204925 
L 71.895625 134.760525 
L 71.895625 132.316125 
L 71.895625 129.871725 
L 71.895625 124.982925 
L 71.895625 120.094125 
L 71.895625 117.649725 
L 76.968352 117.649725 
L 76.968352 115.205325 
L 76.968352 110.316525 
L 76.968352 107.872125 
L 76.968352 105.427725 
L 76.968352 102.983325 
L 76.968352 100.538925 
L 79.504716 100.538925 
L 79.504716 98.094525 
L 79.504716 93.205725 
L 79.504716 90.761325 
L 79.504716 85.872525 
L 79.504716 83.428125 
L 79.504716 80.983725 
L 79.504716 78.539325 
L 79.504716 73.650525 
L 79.504716 71.206125 
L 82.04108 71.206125 
L 87.113807 71.206125 
L 87.113807 68.761725 
L 87.113807 66.317325 
L 87.113807 63.872925 
L 87.113807 61.428525 
L 87.113807 58.984125 
L 87.113807 56.539725 
L 89.65017 56.539725 
L 89.65017 54.095325 
L 89.65017 49.206525 
L 92.186534 49.206525 
L 94.722898 49.206525 
L 94.722898 44.317725 
L 97.259261 44.317725 
L 102.331989 44.317725 
L 104.868352 44.317725 
L 109.94108 44.317725 
L 112.477443 44.317725 
L 117.55017 44.317725 
L 117.55017 41.873325 
L 120.086534 41.873325 
L 122.622898 41.873325 
L 125.159261 41.873325 
L 127.695625 41.873325 
L 130.231989 41.873325 
L 132.768352 41.873325 
L 132.768352 36.984525 
L 135.304716 36.984525 
L 137.84108 36.984525 
L 140.377443 36.984525 
L 140.377443 32.095725 
L 142.913807 32.095725 
L 145.45017 32.095725 
L 147.986534 32.095725 
L 150.522898 32.095725 
L 153.059261 32.095725 
L 158.131989 32.095725 
L 160.668352 32.095725 
L 165.74108 32.095725 
L 168.277443 32.095725 
L 170.813807 32.095725 
L 173.35017 32.095725 
L 178.422898 32.095725 
L 183.495625 32.095725 
L 186.031989 32.095725 
L 188.568352 32.095725 
L 191.104716 32.095725 
L 196.177443 32.095725 
L 201.25017 32.095725 
L 203.786534 32.095725 
L 208.859261 32.095725 
L 213.931989 32.095725 
L 216.468352 32.095725 
L 221.54108 32.095725 
L 226.613807 32.095725 
L 229.15017 32.095725 
L 231.686534 32.095725 
L 236.759261 32.095725 
L 239.295625 32.095725 
L 241.831989 32.095725 
L 244.368352 32.095725 
L 249.44108 32.095725 
L 254.513807 32.095725 
L 257.05017 32.095725 
" style="fill:none;stroke:#000000;stroke-linecap:square;stroke-width:1.5;"/>
   </g>
   <g id="patch_3">
    <path d="M 43.995625 237.425325 
L 43.995625 22.318125 
" style="fill:none;stroke:#000000;stroke-linecap:square;stroke-linejoin:miter;stroke-width:0.8;"/>
   </g>
   <g id="patch_4">
    <path d="M 43.995625 237.425325 
L 267.195625 237.425325 
" style="fill:none;stroke:#000000;stroke-linecap:square;stroke-linejoin:miter;stroke-width:0.8;"/>
   </g>
   <g id="text_15">
    <!-- AUC = 0.908 -->
    <defs>
     <path d="M 54.6875 0 
L 45.796875 22.703125 
L 17.1875 22.703125 
L 8.40625 0 
L 0 0 
L 28.21875 71.6875 
L 35.203125 71.6875 
L 63.28125 0 
z
M 43.21875 30.171875 
L 34.90625 52.296875 
Q 33.296875 56.5 31.59375 62.59375 
Q 30.515625 57.90625 28.515625 52.296875 
L 20.125 30.171875 
z
" id="OpenSans-41"/>
     <path d="M 63.71875 71.390625 
L 63.71875 25.203125 
Q 63.71875 12.984375 56.34375 6 
Q 48.96875 -0.984375 36.078125 -0.984375 
Q 23.1875 -0.984375 16.125 6.046875 
Q 9.078125 13.09375 9.078125 25.390625 
L 9.078125 71.390625 
L 17.390625 71.390625 
L 17.390625 24.8125 
Q 17.390625 15.875 22.265625 11.078125 
Q 27.15625 6.296875 36.625 6.296875 
Q 45.65625 6.296875 50.53125 11.109375 
Q 55.421875 15.921875 55.421875 24.90625 
L 55.421875 71.390625 
z
" id="OpenSans-55"/>
     <path d="M 40.375 64.984375 
Q 28.609375 64.984375 21.796875 57.140625 
Q 14.984375 49.3125 14.984375 35.6875 
Q 14.984375 21.6875 21.546875 14.03125 
Q 28.125 6.390625 40.28125 6.390625 
Q 47.75 6.390625 57.328125 9.078125 
L 57.328125 1.8125 
Q 49.90625 -0.984375 39.015625 -0.984375 
Q 23.25 -0.984375 14.671875 8.59375 
Q 6.109375 18.171875 6.109375 35.796875 
Q 6.109375 46.828125 10.234375 55.125 
Q 14.359375 63.421875 22.140625 67.90625 
Q 29.9375 72.40625 40.484375 72.40625 
Q 51.703125 72.40625 60.109375 68.3125 
L 56.59375 61.1875 
Q 48.484375 64.984375 40.375 64.984375 
z
" id="OpenSans-43"/>
     <path id="OpenSans-20"/>
     <path d="M 5.8125 41.890625 
L 5.8125 48.578125 
L 51.21875 48.578125 
L 51.21875 41.890625 
z
M 5.8125 21.921875 
L 5.8125 28.609375 
L 51.21875 28.609375 
L 51.21875 21.921875 
z
" id="OpenSans-3d"/>
     <path d="M 52.203125 35.796875 
Q 52.203125 17.28125 46.359375 8.140625 
Q 40.53125 -0.984375 28.515625 -0.984375 
Q 17 -0.984375 10.984375 8.359375 
Q 4.984375 17.71875 4.984375 35.796875 
Q 4.984375 54.4375 10.796875 63.46875 
Q 16.609375 72.515625 28.515625 72.515625 
Q 40.140625 72.515625 46.171875 63.078125 
Q 52.203125 53.65625 52.203125 35.796875 
z
M 13.1875 35.796875 
Q 13.1875 20.21875 16.84375 13.109375 
Q 20.515625 6 28.515625 6 
Q 36.625 6 40.25 13.203125 
Q 43.890625 20.40625 43.890625 35.796875 
Q 43.890625 51.171875 40.25 58.328125 
Q 36.625 65.484375 28.515625 65.484375 
Q 20.515625 65.484375 16.84375 58.421875 
Q 13.1875 51.375 13.1875 35.796875 
z
" id="OpenSans-30"/>
     <path d="M 7.421875 5.171875 
Q 7.421875 8.453125 8.90625 10.125 
Q 10.40625 11.8125 13.1875 11.8125 
Q 16.015625 11.8125 17.59375 10.125 
Q 19.1875 8.453125 19.1875 5.171875 
Q 19.1875 2 17.578125 0.28125 
Q 15.96875 -1.421875 13.1875 -1.421875 
Q 10.6875 -1.421875 9.046875 0.109375 
Q 7.421875 1.65625 7.421875 5.171875 
z
" id="OpenSans-2e"/>
     <path d="M 51.8125 40.921875 
Q 51.8125 -0.984375 19.390625 -0.984375 
Q 13.71875 -0.984375 10.40625 0 
L 10.40625 6.984375 
Q 14.3125 5.71875 19.28125 5.71875 
Q 31 5.71875 36.984375 12.96875 
Q 42.96875 20.21875 43.5 35.203125 
L 42.921875 35.203125 
Q 40.234375 31.15625 35.78125 29.03125 
Q 31.34375 26.90625 25.78125 26.90625 
Q 16.3125 26.90625 10.734375 32.5625 
Q 5.171875 38.234375 5.171875 48.390625 
Q 5.171875 59.515625 11.390625 65.953125 
Q 17.625 72.40625 27.78125 72.40625 
Q 35.0625 72.40625 40.5 68.671875 
Q 45.953125 64.9375 48.875 57.78125 
Q 51.8125 50.640625 51.8125 40.921875 
z
M 27.78125 65.484375 
Q 20.796875 65.484375 16.984375 60.984375 
Q 13.1875 56.5 13.1875 48.484375 
Q 13.1875 41.453125 16.703125 37.421875 
Q 20.21875 33.40625 27.390625 33.40625 
Q 31.84375 33.40625 35.578125 35.203125 
Q 39.3125 37.015625 41.453125 40.140625 
Q 43.609375 43.265625 43.609375 46.6875 
Q 43.609375 51.8125 41.59375 56.15625 
Q 39.59375 60.5 36 62.984375 
Q 32.421875 65.484375 27.78125 65.484375 
z
" id="OpenSans-39"/>
     <path d="M 28.515625 72.40625 
Q 38.28125 72.40625 43.984375 67.859375 
Q 49.703125 63.328125 49.703125 55.328125 
Q 49.703125 50.046875 46.4375 45.703125 
Q 43.171875 41.359375 35.984375 37.796875 
Q 44.671875 33.640625 48.328125 29.078125 
Q 52 24.515625 52 18.5 
Q 52 9.625 45.796875 4.3125 
Q 39.59375 -0.984375 28.8125 -0.984375 
Q 17.390625 -0.984375 11.234375 4.015625 
Q 5.078125 9.03125 5.078125 18.21875 
Q 5.078125 30.46875 20.015625 37.3125 
Q 13.28125 41.109375 10.34375 45.53125 
Q 7.421875 49.953125 7.421875 55.421875 
Q 7.421875 63.1875 13.15625 67.796875 
Q 18.890625 72.40625 28.515625 72.40625 
z
M 13.09375 18.015625 
Q 13.09375 12.15625 17.15625 8.875 
Q 21.234375 5.609375 28.609375 5.609375 
Q 35.890625 5.609375 39.9375 9.03125 
Q 44 12.453125 44 18.40625 
Q 44 23.140625 40.1875 26.828125 
Q 36.375 30.515625 26.90625 33.984375 
Q 19.625 30.859375 16.359375 27.078125 
Q 13.09375 23.296875 13.09375 18.015625 
z
M 28.421875 65.828125 
Q 22.3125 65.828125 18.84375 62.890625 
Q 15.375 59.96875 15.375 55.078125 
Q 15.375 50.59375 18.25 47.359375 
Q 21.140625 44.140625 28.90625 40.921875 
Q 35.890625 43.84375 38.796875 47.21875 
Q 41.703125 50.59375 41.703125 55.078125 
Q 41.703125 60.015625 38.15625 62.921875 
Q 34.625 65.828125 28.421875 65.828125 
z
" id="OpenSans-38"/>
    </defs>
    <g transform="translate(121.779062 16.318125)scale(0.12 -0.12)">
     <use xlink:href="#OpenSans-41"/>
     <use x="63.28125" xlink:href="#OpenSans-55"/>
     <use x="136.083984" xlink:href="#OpenSans-43"/>
     <use x="199.169922" xlink:href="#OpenSans-20"/>
     <use x="225.146484" xlink:href="#OpenSans-3d"/>
     <use x="282.324219" xlink:href="#OpenSans-20"/>
     <use x="308.300781" xlink:href="#OpenSans-30"/>
     <use x="365.478516" xlink:href="#OpenSans-2e"/>
     <use x="392.089844" xlink:href="#OpenSans-39"/>
     <use x="449.267578" xlink:href="#OpenSans-30"/>
     <use x="506.445312" xlink:href="#OpenSans-38"/>
    </g>
   </g>
  </g>
 </g>
 <defs>
  <clipPath id="pc356802b94">
   <rect height="215.1072" width="223.2" x="43.995625" y="22.318125"/>
  </clipPath>
 </defs>
</svg>
